<mxfile host="app.diagrams.net" modified="2024-06-18T12:04:10.288Z" agent="Mozilla/5.0 (Windows NT 10.0; Win64; x64) AppleWebKit/537.36 (KHTML, like Gecko) Chrome/125.0.0.0 Safari/537.36" etag="kTP-WfXX1jpWlhu6thP4" version="24.5.5" type="github">
  <diagram name="第 1 页" id="umxzl28w_7Frq8w19yzO">
    <mxGraphModel dx="1338" dy="908" grid="1" gridSize="10" guides="1" tooltips="1" connect="1" arrows="1" fold="1" page="1" pageScale="1" pageWidth="827" pageHeight="1169" math="0" shadow="0">
      <root>
        <mxCell id="0" />
        <mxCell id="1" parent="0" />
        <mxCell id="QTKD-8OSb_6cW6TbMTXk-1" value="" style="rounded=0;whiteSpace=wrap;html=1;" vertex="1" parent="1">
          <mxGeometry x="160" y="140" width="510" height="710" as="geometry" />
        </mxCell>
        <mxCell id="QTKD-8OSb_6cW6TbMTXk-18" style="rounded=0;orthogonalLoop=1;jettySize=auto;html=1;exitX=1;exitY=0.3333333333333333;exitDx=0;exitDy=0;exitPerimeter=0;entryX=0;entryY=0.5;entryDx=0;entryDy=0;strokeColor=default;endArrow=none;endFill=0;" edge="1" parent="1" source="JHXLXgb01uyuLItqDjtC-1" target="QTKD-8OSb_6cW6TbMTXk-6">
          <mxGeometry relative="1" as="geometry" />
        </mxCell>
        <mxCell id="JHXLXgb01uyuLItqDjtC-1" value="&lt;span style=&quot;color: rgb(50, 50, 50); font-family: &amp;quot;Microsoft YaHei&amp;quot;, 微软雅黑, Arial; font-size: 16px; text-wrap: wrap; background-color: rgba(255, 255, 255, 0.01);&quot;&gt;Evacuation&lt;/span&gt;&lt;div&gt;&lt;span style=&quot;color: rgb(50, 50, 50); font-family: &amp;quot;Microsoft YaHei&amp;quot;, 微软雅黑, Arial; font-size: 16px; text-wrap: wrap; background-color: rgba(255, 255, 255, 0.01);&quot;&gt;Warden&lt;/span&gt;&lt;/div&gt;" style="shape=umlActor;verticalLabelPosition=bottom;verticalAlign=top;html=1;outlineConnect=0;" parent="1" vertex="1">
          <mxGeometry x="90" y="270" width="30" height="60" as="geometry" />
        </mxCell>
        <mxCell id="QTKD-8OSb_6cW6TbMTXk-34" style="rounded=0;orthogonalLoop=1;jettySize=auto;html=1;exitX=1;exitY=0.3333333333333333;exitDx=0;exitDy=0;exitPerimeter=0;entryX=0;entryY=0.5;entryDx=0;entryDy=0;" edge="1" parent="1" source="QTKD-8OSb_6cW6TbMTXk-2" target="QTKD-8OSb_6cW6TbMTXk-12">
          <mxGeometry relative="1" as="geometry" />
        </mxCell>
        <mxCell id="QTKD-8OSb_6cW6TbMTXk-2" value="&lt;span style=&quot;color: rgb(50, 50, 50); font-family: &amp;quot;Microsoft YaHei&amp;quot;, 微软雅黑, Arial; font-size: 16px; text-wrap: wrap; background-color: rgba(255, 255, 255, 0.01);&quot;&gt;Firefighter&lt;/span&gt;" style="shape=umlActor;verticalLabelPosition=bottom;verticalAlign=top;html=1;outlineConnect=0;" vertex="1" parent="1">
          <mxGeometry x="90" y="670" width="30" height="60" as="geometry" />
        </mxCell>
        <mxCell id="QTKD-8OSb_6cW6TbMTXk-19" style="rounded=0;orthogonalLoop=1;jettySize=auto;html=1;exitX=0;exitY=0.3333333333333333;exitDx=0;exitDy=0;exitPerimeter=0;endArrow=none;endFill=0;" edge="1" parent="1" source="QTKD-8OSb_6cW6TbMTXk-3" target="QTKD-8OSb_6cW6TbMTXk-7">
          <mxGeometry relative="1" as="geometry" />
        </mxCell>
        <mxCell id="QTKD-8OSb_6cW6TbMTXk-20" style="rounded=0;orthogonalLoop=1;jettySize=auto;html=1;exitX=0;exitY=0.3333333333333333;exitDx=0;exitDy=0;exitPerimeter=0;entryX=1;entryY=0.5;entryDx=0;entryDy=0;endArrow=none;endFill=0;" edge="1" parent="1" source="QTKD-8OSb_6cW6TbMTXk-3" target="QTKD-8OSb_6cW6TbMTXk-6">
          <mxGeometry relative="1" as="geometry" />
        </mxCell>
        <mxCell id="QTKD-8OSb_6cW6TbMTXk-21" style="rounded=0;orthogonalLoop=1;jettySize=auto;html=1;exitX=0;exitY=0.3333333333333333;exitDx=0;exitDy=0;exitPerimeter=0;entryX=1;entryY=0.5;entryDx=0;entryDy=0;endArrow=none;endFill=0;" edge="1" parent="1" source="QTKD-8OSb_6cW6TbMTXk-3" target="QTKD-8OSb_6cW6TbMTXk-9">
          <mxGeometry relative="1" as="geometry" />
        </mxCell>
        <mxCell id="QTKD-8OSb_6cW6TbMTXk-22" style="rounded=0;orthogonalLoop=1;jettySize=auto;html=1;exitX=0;exitY=0.3333333333333333;exitDx=0;exitDy=0;exitPerimeter=0;entryX=1;entryY=0.5;entryDx=0;entryDy=0;endArrow=none;endFill=0;" edge="1" parent="1" source="QTKD-8OSb_6cW6TbMTXk-3" target="QTKD-8OSb_6cW6TbMTXk-15">
          <mxGeometry relative="1" as="geometry" />
        </mxCell>
        <mxCell id="QTKD-8OSb_6cW6TbMTXk-31" style="rounded=0;orthogonalLoop=1;jettySize=auto;html=1;exitX=0;exitY=0.3333333333333333;exitDx=0;exitDy=0;exitPerimeter=0;entryX=1;entryY=0.5;entryDx=0;entryDy=0;" edge="1" parent="1" source="QTKD-8OSb_6cW6TbMTXk-3" target="QTKD-8OSb_6cW6TbMTXk-30">
          <mxGeometry relative="1" as="geometry" />
        </mxCell>
        <mxCell id="QTKD-8OSb_6cW6TbMTXk-3" value="&lt;span style=&quot;color: rgb(50, 50, 50); font-family: &amp;quot;Microsoft YaHei&amp;quot;, 微软雅黑, Arial; font-size: 16px; text-wrap: wrap; background-color: rgba(255, 255, 255, 0.01);&quot;&gt;IFS Manager&lt;/span&gt;" style="shape=umlActor;verticalLabelPosition=bottom;verticalAlign=top;html=1;outlineConnect=0;" vertex="1" parent="1">
          <mxGeometry x="720" y="270" width="30" height="60" as="geometry" />
        </mxCell>
        <mxCell id="QTKD-8OSb_6cW6TbMTXk-23" style="rounded=0;orthogonalLoop=1;jettySize=auto;html=1;exitX=0;exitY=0.3333333333333333;exitDx=0;exitDy=0;exitPerimeter=0;entryX=1;entryY=0.5;entryDx=0;entryDy=0;endArrow=none;endFill=0;" edge="1" parent="1" source="QTKD-8OSb_6cW6TbMTXk-4" target="QTKD-8OSb_6cW6TbMTXk-15">
          <mxGeometry relative="1" as="geometry" />
        </mxCell>
        <mxCell id="QTKD-8OSb_6cW6TbMTXk-4" value="&lt;span style=&quot;color: rgb(50, 50, 50); font-family: &amp;quot;Microsoft YaHei&amp;quot;, 微软雅黑, Arial; font-size: 16px; text-wrap: wrap; background-color: rgba(255, 255, 255, 0.01);&quot;&gt;Passersby&lt;/span&gt;" style="shape=umlActor;verticalLabelPosition=bottom;verticalAlign=top;html=1;outlineConnect=0;" vertex="1" parent="1">
          <mxGeometry x="720" y="670" width="30" height="60" as="geometry" />
        </mxCell>
        <mxCell id="QTKD-8OSb_6cW6TbMTXk-6" value="&lt;span style=&quot;color: rgb(50, 50, 50); font-family: &amp;quot;Microsoft YaHei&amp;quot;, 微软雅黑, Arial; font-size: 16px; background-color: rgba(255, 255, 255, 0.01);&quot;&gt;Trigger Evacuation&lt;/span&gt;" style="ellipse;whiteSpace=wrap;html=1;" vertex="1" parent="1">
          <mxGeometry x="240" y="180" width="120" height="80" as="geometry" />
        </mxCell>
        <mxCell id="QTKD-8OSb_6cW6TbMTXk-7" value="&lt;span style=&quot;color: rgb(50, 50, 50); font-family: &amp;quot;Microsoft YaHei&amp;quot;, 微软雅黑, Arial; font-size: 15px; background-color: rgba(255, 255, 255, 0.01);&quot;&gt;Setting IFS&lt;/span&gt;&lt;div&gt;&lt;span style=&quot;color: rgb(50, 50, 50); font-family: &amp;quot;Microsoft YaHei&amp;quot;, 微软雅黑, Arial; font-size: 15px; background-color: rgba(255, 255, 255, 0.01);&quot;&gt;rules&lt;/span&gt;&lt;/div&gt;" style="ellipse;whiteSpace=wrap;html=1;" vertex="1" parent="1">
          <mxGeometry x="510" y="160" width="120" height="80" as="geometry" />
        </mxCell>
        <mxCell id="QTKD-8OSb_6cW6TbMTXk-24" style="edgeStyle=orthogonalEdgeStyle;rounded=0;orthogonalLoop=1;jettySize=auto;html=1;exitX=0.5;exitY=0;exitDx=0;exitDy=0;dashed=1;" edge="1" parent="1" source="QTKD-8OSb_6cW6TbMTXk-8" target="QTKD-8OSb_6cW6TbMTXk-6">
          <mxGeometry relative="1" as="geometry" />
        </mxCell>
        <mxCell id="QTKD-8OSb_6cW6TbMTXk-25" style="rounded=0;orthogonalLoop=1;jettySize=auto;html=1;exitX=0.5;exitY=1;exitDx=0;exitDy=0;dashed=1;" edge="1" parent="1" source="QTKD-8OSb_6cW6TbMTXk-8" target="QTKD-8OSb_6cW6TbMTXk-10">
          <mxGeometry relative="1" as="geometry" />
        </mxCell>
        <mxCell id="QTKD-8OSb_6cW6TbMTXk-32" style="rounded=0;orthogonalLoop=1;jettySize=auto;html=1;exitX=1;exitY=0.5;exitDx=0;exitDy=0;entryX=0;entryY=0.5;entryDx=0;entryDy=0;dashed=1;" edge="1" parent="1" source="QTKD-8OSb_6cW6TbMTXk-8" target="QTKD-8OSb_6cW6TbMTXk-15">
          <mxGeometry relative="1" as="geometry" />
        </mxCell>
        <mxCell id="QTKD-8OSb_6cW6TbMTXk-33" style="rounded=0;orthogonalLoop=1;jettySize=auto;html=1;exitX=1;exitY=0.5;exitDx=0;exitDy=0;dashed=1;" edge="1" parent="1" source="QTKD-8OSb_6cW6TbMTXk-8" target="QTKD-8OSb_6cW6TbMTXk-9">
          <mxGeometry relative="1" as="geometry" />
        </mxCell>
        <mxCell id="QTKD-8OSb_6cW6TbMTXk-36" value="&amp;lt;&amp;lt; include &amp;gt;&amp;gt;" style="edgeLabel;html=1;align=center;verticalAlign=middle;resizable=0;points=[];" vertex="1" connectable="0" parent="QTKD-8OSb_6cW6TbMTXk-33">
          <mxGeometry x="0.0148" y="-5" relative="1" as="geometry">
            <mxPoint as="offset" />
          </mxGeometry>
        </mxCell>
        <mxCell id="QTKD-8OSb_6cW6TbMTXk-8" value="&lt;span style=&quot;color: rgb(50, 50, 50); font-family: &amp;quot;Microsoft YaHei&amp;quot;, 微软雅黑, Arial; font-size: 15px; background-color: rgba(255, 255, 255, 0.01);&quot;&gt;FIP automated processing&lt;/span&gt;" style="ellipse;whiteSpace=wrap;html=1;" vertex="1" parent="1">
          <mxGeometry x="240" y="320" width="120" height="80" as="geometry" />
        </mxCell>
        <mxCell id="QTKD-8OSb_6cW6TbMTXk-9" value="&lt;span style=&quot;color: rgb(50, 50, 50); font-family: &amp;quot;Microsoft YaHei&amp;quot;, 微软雅黑, Arial; font-size: 16px; background-color: rgba(255, 255, 255, 0.01);&quot;&gt;Evaluate Fire Severity&lt;/span&gt;" style="ellipse;whiteSpace=wrap;html=1;" vertex="1" parent="1">
          <mxGeometry x="500" y="310" width="120" height="80" as="geometry" />
        </mxCell>
        <mxCell id="QTKD-8OSb_6cW6TbMTXk-27" style="rounded=0;orthogonalLoop=1;jettySize=auto;html=1;exitX=0.5;exitY=1;exitDx=0;exitDy=0;endArrow=none;endFill=0;dashed=1;" edge="1" parent="1" source="QTKD-8OSb_6cW6TbMTXk-10" target="QTKD-8OSb_6cW6TbMTXk-12">
          <mxGeometry relative="1" as="geometry" />
        </mxCell>
        <mxCell id="QTKD-8OSb_6cW6TbMTXk-28" style="rounded=0;orthogonalLoop=1;jettySize=auto;html=1;exitX=0.5;exitY=1;exitDx=0;exitDy=0;dashed=1;" edge="1" parent="1" source="QTKD-8OSb_6cW6TbMTXk-10" target="QTKD-8OSb_6cW6TbMTXk-13">
          <mxGeometry relative="1" as="geometry" />
        </mxCell>
        <mxCell id="QTKD-8OSb_6cW6TbMTXk-29" style="rounded=0;orthogonalLoop=1;jettySize=auto;html=1;exitX=0.5;exitY=1;exitDx=0;exitDy=0;dashed=1;" edge="1" parent="1" source="QTKD-8OSb_6cW6TbMTXk-10" target="QTKD-8OSb_6cW6TbMTXk-14">
          <mxGeometry relative="1" as="geometry" />
        </mxCell>
        <mxCell id="QTKD-8OSb_6cW6TbMTXk-10" value="&lt;span style=&quot;color: rgb(50, 50, 50); font-family: &amp;quot;Microsoft YaHei&amp;quot;, 微软雅黑, Arial; font-size: 16px; background-color: rgba(255, 255, 255, 0.01);&quot;&gt;Control Fire Spread&lt;/span&gt;" style="ellipse;whiteSpace=wrap;html=1;" vertex="1" parent="1">
          <mxGeometry x="230" y="530" width="120" height="80" as="geometry" />
        </mxCell>
        <mxCell id="QTKD-8OSb_6cW6TbMTXk-11" value="&lt;span style=&quot;color: rgb(50, 50, 50); font-family: &amp;quot;Microsoft YaHei&amp;quot;, 微软雅黑, Arial; font-size: 16px; background-color: rgba(255, 255, 255, 0.01);&quot;&gt;Monitor Sensors&lt;/span&gt;" style="ellipse;whiteSpace=wrap;html=1;" vertex="1" parent="1">
          <mxGeometry x="370" y="530" width="120" height="80" as="geometry" />
        </mxCell>
        <mxCell id="QTKD-8OSb_6cW6TbMTXk-12" value="&lt;span style=&quot;color: rgb(50, 50, 50); font-family: &amp;quot;Microsoft YaHei&amp;quot;, 微软雅黑, Arial; font-size: 16px; background-color: rgba(255, 255, 255, 0.01);&quot;&gt;Activate Suppression Systems&lt;/span&gt;" style="ellipse;whiteSpace=wrap;html=1;" vertex="1" parent="1">
          <mxGeometry x="174" y="660" width="120" height="80" as="geometry" />
        </mxCell>
        <mxCell id="QTKD-8OSb_6cW6TbMTXk-13" value="&lt;span style=&quot;color: rgb(50, 50, 50); font-family: &amp;quot;Microsoft YaHei&amp;quot;, 微软雅黑, Arial; font-size: 15px; background-color: rgba(255, 255, 255, 0.01);&quot;&gt;Close the fire door&lt;/span&gt;" style="ellipse;whiteSpace=wrap;html=1;" vertex="1" parent="1">
          <mxGeometry x="294" y="750" width="120" height="80" as="geometry" />
        </mxCell>
        <mxCell id="QTKD-8OSb_6cW6TbMTXk-14" value="&lt;span style=&quot;color: rgb(50, 50, 50); font-family: &amp;quot;Microsoft YaHei&amp;quot;, 微软雅黑, Arial; font-size: 15px; background-color: rgba(255, 255, 255, 0.01);&quot;&gt;Close fire windows&lt;/span&gt;" style="ellipse;whiteSpace=wrap;html=1;" vertex="1" parent="1">
          <mxGeometry x="400" y="660" width="120" height="80" as="geometry" />
        </mxCell>
        <mxCell id="QTKD-8OSb_6cW6TbMTXk-15" value="&lt;span style=&quot;color: rgb(50, 50, 50); font-family: &amp;quot;Microsoft YaHei&amp;quot;, 微软雅黑, Arial; font-size: 16px; background-color: rgba(255, 255, 255, 0.01);&quot;&gt;Trigger Alarm&lt;/span&gt;" style="ellipse;whiteSpace=wrap;html=1;" vertex="1" parent="1">
          <mxGeometry x="520" y="520" width="120" height="80" as="geometry" />
        </mxCell>
        <mxCell id="QTKD-8OSb_6cW6TbMTXk-26" style="rounded=0;orthogonalLoop=1;jettySize=auto;html=1;exitX=0.5;exitY=1;exitDx=0;exitDy=0;entryX=0.433;entryY=0.054;entryDx=0;entryDy=0;entryPerimeter=0;dashed=1;" edge="1" parent="1" source="QTKD-8OSb_6cW6TbMTXk-8" target="QTKD-8OSb_6cW6TbMTXk-11">
          <mxGeometry relative="1" as="geometry" />
        </mxCell>
        <mxCell id="QTKD-8OSb_6cW6TbMTXk-30" value="&lt;span style=&quot;color: rgb(50, 50, 50); font-family: &amp;quot;Microsoft YaHei&amp;quot;, 微软雅黑, Arial; font-size: 16px; background-color: rgba(255, 255, 255, 0.01);&quot;&gt;Generate Reports&lt;/span&gt;" style="ellipse;whiteSpace=wrap;html=1;" vertex="1" parent="1">
          <mxGeometry x="490" y="420" width="120" height="80" as="geometry" />
        </mxCell>
      </root>
    </mxGraphModel>
  </diagram>
</mxfile>
